<?xml version="1.0" standalone="no"?>
<!DOCTYPE svg PUBLIC "-//W3C//DTD SVG 20010904//EN"
 "http://www.w3.org/TR/2001/REC-SVG-20010904/DTD/svg10.dtd">
<svg version="1.0" xmlns="http://www.w3.org/2000/svg"
 width="500.000000pt" height="500.000000pt" viewBox="0 0 500.000000 500.000000"
 preserveAspectRatio="xMidYMid meet">
<metadata>
Created by potrace 1.14, written by Peter Selinger 2001-2017
</metadata>
<g transform="translate(0.000000,500.000000) scale(0.100000,-0.100000)"
fill="#000000" stroke="none">
<path d="M2357 4863 c-2 -1 -36 -5 -77 -8 -235 -19 -520 -99 -767 -215 -622
-293 -1190 -925 -1354 -1509 -16 -58 -29 -113 -29 -122 0 -41 -4 -40 830 -79
376 -17 427 -18 440 -5 23 24 0 48 -56 61 -27 6 -202 46 -389 88 -435 99 -425
96 -425 111 0 28 82 209 125 276 210 325 491 577 835 749 261 130 478 186 757
197 231 9 471 -24 688 -94 76 -25 89 -32 87 -49 -7 -39 -187 -631 -274 -899
l-10 -30 -64 9 c-49 8 -64 14 -64 27 0 9 20 110 44 225 87 413 99 475 90 483
-29 27 -315 113 -414 125 -90 11 -211 20 -268 19 -69 -1 -196 -12 -215 -18 -7
-2 -30 -7 -52 -10 -234 -34 -524 -180 -702 -353 -118 -115 -166 -180 -213
-290 -46 -106 -15 -113 140 -33 95 49 121 68 151 108 46 62 157 152 255 208
222 127 505 175 754 129 l90 -16 1 -42 c1 -22 3 -165 5 -316 l4 -275 -66 -30
c-178 -78 -331 -230 -415 -410 -17 -36 -36 -66 -42 -67 -25 -3 -155 -13 -312
-23 -38 -3 -95 -7 -125 -10 -30 -3 -102 -7 -160 -10 -58 -4 -121 -8 -140 -10
-19 -2 -93 -7 -165 -10 -71 -3 -150 -8 -175 -10 -25 -3 -92 -7 -150 -10 -58
-3 -134 -7 -170 -10 -36 -3 -103 -7 -150 -10 -60 -4 -88 -11 -97 -22 -11 -15
-10 -157 2 -258 3 -22 7 -62 10 -90 14 -126 41 -279 70 -395 40 -155 159 -420
273 -604 47 -76 171 -249 191 -266 3 -3 31 -34 61 -70 330 -392 843 -702 1366
-825 256 -61 429 -80 694 -79 195 1 353 20 495 60 97 27 135 47 135 68 0 7
-35 76 -78 152 -97 172 -398 709 -484 863 -70 126 -88 145 -114 119 -19 -19
-23 -6 162 -535 68 -194 124 -359 124 -367 0 -10 -15 -17 -47 -21 -27 -3 -70
-11 -98 -16 -109 -22 -397 -1 -585 42 -697 159 -1239 621 -1480 1264 -41 108
-94 294 -87 301 16 17 484 167 829 267 l187 55 16 -54 c8 -29 18 -60 21 -67 4
-11 -87 -51 -351 -157 -196 -79 -363 -149 -372 -155 -14 -11 -14 -21 6 -120
88 -428 328 -789 674 -1017 233 -152 481 -228 709 -215 100 5 128 15 128 46 0
25 -230 160 -283 167 -67 9 -187 44 -256 75 -101 46 -248 149 -334 234 -121
120 -262 352 -282 462 -6 32 -9 29 359 269 l189 123 49 -44 c155 -139 335
-199 578 -193 l135 3 70 -105 c100 -150 334 -529 583 -944 181 -302 217 -356
237 -356 49 0 333 210 499 370 314 302 582 742 676 1110 12 47 25 92 30 101
13 25 39 165 53 289 16 144 12 464 -7 585 -30 191 -120 548 -146 580 -4 5 -23
48 -41 95 -45 120 -122 282 -157 332 -16 24 -59 88 -94 143 -82 127 -166 230
-262 323 -111 108 -101 114 -252 -157 -131 -236 -393 -689 -451 -780 -40 -63
-41 -96 -2 -96 27 0 29 2 249 255 30 34 63 72 73 84 67 79 119 137 162 186 28
30 67 75 87 98 l36 44 77 -104 c43 -56 86 -121 97 -143 11 -22 29 -51 38 -65
28 -40 106 -228 140 -341 18 -57 36 -113 41 -124 24 -56 56 -272 65 -445 13
-234 -42 -584 -115 -735 -11 -22 -46 -96 -79 -165 -106 -221 -263 -433 -430
-578 l-61 -52 -53 56 c-29 31 -69 73 -88 94 -237 251 -290 307 -390 415 -40
44 -99 107 -130 140 -30 33 -125 136 -210 228 -173 189 -154 180 -267 133
-193 -82 -406 2 -497 194 -28 58 -31 75 -31 155 0 80 3 97 31 156 43 91 93
142 178 184 123 61 240 57 369 -13 171 -92 237 -315 148 -497 -18 -36 -31 -71
-29 -78 2 -7 62 -64 133 -127 72 -63 219 -196 329 -295 109 -99 213 -192 231
-206 19 -14 62 -53 97 -86 86 -83 123 -113 141 -113 40 0 269 223 359 350 200
283 290 584 275 920 -11 235 -86 474 -192 613 -30 39 -42 48 -63 45 l-27 -3
-1 -149 c-2 -124 1 -156 16 -191 51 -119 72 -335 49 -501 -30 -217 -140 -455
-267 -578 l-40 -38 -184 109 c-100 60 -227 135 -281 167 -85 50 -98 61 -93 79
54 218 47 383 -25 567 -31 77 -85 164 -152 244 l-39 45 97 173 c134 237 347
602 515 878 76 126 140 236 141 242 4 30 -6 39 -103 96 -246 143 -497 249
-678 286 -83 17 -128 24 -250 41 -105 15 -493 29 -503 18z"/>
</g>
</svg>
